<svg width="400" height="200" viewBox="0 0 400 200" fill="none" xmlns="http://www.w3.org/2000/svg">
<path d="M274.8 68.3H125.2V101.1H274.8V69.4" fill="#0070E1"/>
<path d="M259.4 111.4H140.6V39.6C140.6 37.9 141.9 36.6 143.6 36.6H256.3C258 36.6 259.3 37.9 259.3 39.6L259.4 111.4Z" fill="url(#paint0_linear_2_23264)"/>
<path d="M259.4 111.4H140.6V39.6C140.6 37.9 141.9 36.6 143.6 36.6H256.3C258 36.6 259.3 37.9 259.3 39.6L259.4 111.4Z" fill="url(#paint1_linear_2_23264)"/>
<path d="M259.3 106.2H140.6V119.3H259.3V106.2Z" fill="#005099"/>
<path d="M242.6 98.2C246.4 98.9 250.2 99.2 254 99.2C254.8 99.2 255.5 98.7 255.8 98C259.8 88.5 260.1 75.7 260.1 71.5C260.1 70.7 259.6 70 258.8 69.7C255.6 68.7 252.4 67.9 249.2 67.2L247.3 66.8C244.1 66.1 240.8 65.7 237.5 65.4C236.7 65.3 235.9 65.8 235.6 66.6C233.9 70.5 229.2 82.5 229.3 92.7C229.3 93.5 229.8 94.2 230.5 94.5C234 95.9 237.7 97.1 241.4 97.9L242.6 98.2Z" fill="#2CCAFA"/>
<path d="M236.6 66C236.6 66 236.5 60.8 232.1 60.2C232.1 61.2 232.3 62.1 232.7 63C232.7 63 231.9 65.3999 233.8 66.1999C234.7 66.4999 235.7 66.4 236.6 66Z" fill="#2CCAFA"/>
<path d="M259 70.5C259 70.5 261.1 65.8 265.4 66.9C265.1 67.8 264.5 68.6 263.8 69.3C263.8 69.3 263.6 71.8 261.6 71.8C260.7 71.7 259.7 71.2 259 70.5Z" fill="#2CCAFA"/>
<path d="M253.4 98.3C253.4 98.3 253.5 103.5 257.9 104.1C257.9 103.1 257.7 102.2 257.3 101.3C257.3 101.3 258.1 98.9 256.2 98.1C255.3 97.9 254.3 97.9 253.4 98.3Z" fill="url(#paint2_linear_2_23264)"/>
<path d="M231.1 93.8C231.1 93.8 229 98.5 224.7 97.4C225 96.5 225.6 95.7 226.3 95C226.3 95 226.5 92.5 228.5 92.5C229.4 92.7 230.3 93.1 231.1 93.8Z" fill="#2CCAFA"/>
<path d="M158.1 98.2C154.3 98.9 150.5 99.2 146.7 99.2C145.9 99.2 145.3 98.7 144.9 98C140.9 88.5 140.6 75.7 140.6 71.5C140.6 70.7 141.1 70 141.9 69.7C145.1 68.7 148.3 67.9 151.5 67.2L153.4 66.8C156.6 66.1 159.9 65.7 163.2 65.4C164 65.3 164.8 65.8 165.1 66.6C166.8 70.5 171.5 82.5 171.4 92.7C171.4 93.5 170.9 94.2 170.2 94.5C166.7 95.9 163 97.1 159.3 97.9L158.1 98.2Z" fill="#2CCAFA"/>
<path d="M164.2 66C164.2 66 164.3 60.8 168.7 60.2C168.7 61.2 168.5 62.1 168.1 63C168.1 63 168.9 65.3999 167 66.1999C166.1 66.4999 165.1 66.4 164.2 66Z" fill="#2CCAFA"/>
<path d="M141.8 70.5C141.8 70.5 139.7 65.8 135.4 66.9C135.7 67.8 136.3 68.6 137 69.3C137 69.3 137.2 71.8 139.2 71.8C140.1 71.7 141.1 71.2 141.8 70.5Z" fill="#2CCAFA"/>
<path d="M147.4 98.3C147.4 98.3 147.3 103.5 142.9 104.1C142.9 103.1 143.1 102.2 143.5 101.3C143.5 101.3 142.7 98.9 144.6 98.1C145.5 97.9 146.5 97.9 147.4 98.3Z" fill="url(#paint3_linear_2_23264)"/>
<path d="M169.8 93.8C169.8 93.8 171.9 98.5 176.2 97.4C175.9 96.5 175.3 95.7 174.6 95C174.6 95 174.4 92.5 172.4 92.5C171.4 92.7 170.5 93.1 169.8 93.8Z" fill="#2CCAFA"/>
<path d="M135.1 99.3C135.1 97.2 136.8 95.5 138.9 95.5H220C222.1 95.5 223.8 97.2 223.8 99.3V115.5C223.8 117.6 222.1 119.3 220 119.3H138.9C136.8 119.3 135.1 117.6 135.1 115.5V99.3Z" fill="url(#paint4_linear_2_23264)"/>
<path d="M142.6 138.7L145.2 156.9H147.8L154.1 138.7H142.6Z" fill="#18437E"/>
<path d="M124.4 138.7L127.7 160.4H130.6L138.1 138.7H124.4Z" fill="#18437E"/>
<path d="M257.8 138.7L249.4 147.5L246.4 138.7H257.8Z" fill="#18437E"/>
<path d="M275.9 138.7L272.8 160.4H269.8L262.2 138.7H275.9Z" fill="url(#paint5_linear_2_23264)"/>
<path d="M275.9 138.7L266 149.2L262.2 138.7H275.9Z" fill="#18437E"/>
<path d="M283.5 138.7H116.8C113.2 138.7 110.2 135.8 110.2 132.1V125.9C110.2 122.3 113.1 119.3 116.8 119.3H283.7C287.3 119.3 290.3 122.2 290.3 125.9V132.2C290.1 135.8 287.2 138.7 283.5 138.7Z" fill="#0073DE"/>
<path d="M125.2 68.3C133.7 68.3 140.6 75.2 140.6 83.7V115.5C140.6 117.6 138.9 119.3 136.8 119.3H113.6C111.5 119.3 109.8 117.6 109.8 115.5V83.7C109.7 75.3 116.5 68.4 125 68.3C125.1 68.3 125.2 68.3 125.2 68.3Z" fill="url(#paint6_linear_2_23264)"/>
<path d="M274.8 68.3C283.3 68.3 290.2 75.2 290.2 83.7V115.5C290.2 117.6 288.5 119.3 286.4 119.3C286.4 119.3 286.4 119.3 286.3 119.3H263C260.9 119.3 259.1 117.6 259.1 115.5V83.7C259.2 75.2 266.2 68.3 274.8 68.3Z" fill="url(#paint7_linear_2_23264)"/>
<path d="M132.2 95.6H268.4C271 95.6 273.1 97.7 273.1 100.3V114.7C273.1 117.3 271 119.4 268.4 119.4H132.2C129.6 119.4 127.5 117.3 127.5 114.7V100.3C127.5 97.7 129.6 95.6 132.2 95.6Z" fill="url(#paint8_linear_2_23264)"/>
<path d="M186.4 36.6C186.4 36.6 187 28.1 194.1 26.9C201.6 21 213.7 21.8 222.3 26.9C230.9 32 233.3 36.6 233.3 36.6H186.4Z" fill="#FF727F"/>
<path d="M203.8 36.6H200.4C201 36.1 201.4 35.4 201.6 34.7C202.4 32.1 199.2 29.8 196.6 28.5C196.6 28.5 205.4 29.7 203.8 36.6Z" fill="#FF727F"/>
<path d="M221.6 29.4C220.7 31.7 220.2 34.1 219.9 36.6H233.3C233.3 36.6 231 32.1 222.7 27.1C222.2 27.8 221.9 28.6 221.6 29.4Z" fill="url(#paint9_linear_2_23264)"/>
<path d="M191.8 56.3C191.3 56.1 190.8 56.3 190.6 56.8V56.9C190.4 57.5 190.2 58.1 189.8 58.6C189.6 58.9 189.4 59.1 189.3 59.3C189.2 59.5 188.9 59.7 188.7 59.7C188.3 59.9 187.9 59.9 187.5 59.7C187.2 59.5 186.9 59.3 186.6 59C186.2 59.3 185.8 59.6 185.5 60L184.9 60.6C185.4 61.1 186 61.5 186.6 61.8C187.1 62 187.6 62.1 188.1 62C188.6 62 189.1 61.8 189.6 61.6C190 61.4 190.4 61.1 190.7 60.7C191 60.4 191.3 60 191.5 59.6C191.9 58.9 192.2 58.1 192.4 57.3C192.4 57 192.1 56.5 191.8 56.3Z" fill="white"/>
<path d="M216.1 29.5C220.4 30.7 223.2 36.6 223.2 36.6C223.2 36.6 225.2 43.1 224.8 46.1C224.6 47.2 222.5 48.2 221.7 45.1C220.2 38.4 216 36.6 216 36.6H215.5C211.3 36.6 207.7 33.6 206.9 29.5" fill="#FF727F"/>
<path d="M216.1 29.5C220.4 30.7 223.2 36.6 223.2 36.6C223.2 36.6 225.2 43.1 224.8 46.1C224.6 47.2 222.5 48.2 221.7 45.1C220.2 38.4 216 36.6 216 36.6H215.5C211.3 36.6 207.7 33.6 206.9 29.5H216.1Z" fill="#FF727F"/>
<path d="M223.4 43.5C222.6 43.5 222.1 43.5 221.7 43.9C221.9 44.3 222 44.8 222.1 45.3C222.9 48.5 225.1 47.4 225.2 46.3C225.3 45.4 225.2 44.6 225.1 43.7C224.5 43.6 223.9 43.5 223.4 43.5Z" fill="white"/>
<path d="M232.2 29.2C232.2 29.2 234.3 26.4 233.9 24.5C233.5 22.6 228.8 25.4 228.8 25.4C228.8 25.4 230.4 28.3 232.2 29.2Z" fill="#057CE6"/>
<path d="M232.2 29.2C232.2 29.2 234.3 26.4 233.9 24.5C233.5 22.6 228.8 25.4 228.8 25.4C228.8 25.4 230.4 28.3 232.2 29.2Z" fill="url(#paint10_linear_2_23264)"/>
<path d="M232.9 25.2C231.8 25.3 230.8 25.7 229.9 26.4C230.4 28.4999 232.9 25.2 232.9 25.2Z" fill="#FFC7DB"/>
<path d="M231.9 34.8C230.8 37.6 227.2 38.3 223.1 36.9L222.7 36.7C218.7 35.3 216.3 32.5 217.2 29.6C217.6 28.6 218.1 27.7 218.6 26.8C220.2 24.5 222.9 22.6 226.5 23.9L228.2 24.5C233.4 26.5 233 32 231.9 34.8Z" fill="#FF727F"/>
<path d="M223.866 28.83C224.075 28.2011 223.948 27.5924 223.581 27.4704C223.214 27.3483 222.747 27.7592 222.538 28.3881C222.329 29.017 222.456 29.6257 222.823 29.7477C223.19 29.8697 223.657 29.4588 223.866 28.83Z" fill="#18437E"/>
<path d="M230.31 31.0751C230.519 30.4463 230.391 29.8375 230.024 29.7155C229.657 29.5935 229.191 30.0044 228.981 30.6333C228.772 31.2622 228.9 31.8709 229.267 31.9929C229.634 32.1149 230.101 31.704 230.31 31.0751Z" fill="#18437E"/>
<path d="M223.1 31.2C223.1 31.8 223.5 32.3 224.1 32.4C224.4 32.4 224.7 32.3 225 32.2C225.3 32.1 225.6 31.9 225.9 31.7C225.9 31.7 226.2 31.8 226.2 31.9C226 32.3 225.7 32.6 225.4 32.9L224.8 33.2C224.6 33.3 224.3 33.4 224 33.3C223.4 33.3 222.9 32.9 222.7 32.4C222.5 32 222.5 31.4 222.7 31C222.8 31 223.1 31.1 223.1 31.2Z" fill="#202020"/>
<path d="M229.1 33.1C229 33.6 228.7 34 228.2 34.2C227.7 34.4 227.2 34.4 226.7 34.2C226.4 34.1 226.2 33.9 226.1 33.6C225.9 33.4 225.9 33.2 225.8 33C225.7 32.6 225.7 32.1 225.8 31.7C225.8 31.6 226.2 31.7 226.2 31.7C226.2 32.1 226.4 32.4 226.6 32.7C226.7 32.9 226.8 33 226.9 33.1C227 33.2 227.1 33.3 227.2 33.3C227.8 33.6 228.4 33.4 228.8 32.9L229.1 33.1Z" fill="#202020"/>
<path d="M224.8 30.4C224.8 30.4 225.6 31.6 226.1 31.7C226.7 31.7 227.3 31.5 227.8 31.2" fill="#18437E"/>
<path d="M226.1 34.8C225.9 35 225.7 35.2 225.5 35.2C225.2 35.3 225 35.3 224.7 35.2C224.5 35.1 224.3 34.9 224.1 34.7C223.9 34.5 223.9 34.2 223.9 33.9C224 33.9 224.2 33.8 224.3 33.8C224.4 33.9 224.6 34 224.7 34.1C224.8 34.2 224.9 34.2 225.1 34.2C225.4 34.3 225.7 34.4 226 34.4C226 34.4 226.1 34.7 226.1 34.8Z" fill="#202020"/>
<path d="M220.2 24.9C220.2 24.9 220.3 21.4 221.9 20.2C223.5 19 225.3 24.1 225.3 24.1C225.3 24.1 222.2 25.4 220.2 24.9Z" fill="#057CE6"/>
<path d="M220.2 24.9C220.2 24.9 220.3 21.4 221.9 20.2C223.5 19 225.3 24.1 225.3 24.1C225.3 24.1 222.2 25.4 220.2 24.9Z" fill="#057CE6"/>
<path d="M227 24.2C225.5 27.2 220.2 27.5 218.6 26.9C220.2 24.6 222.9 22.7 226.5 24L227 24.2Z" fill="#18437E"/>
<path d="M222.4 21.4C223.2 22.2 223.8 23.2 224 24.3C222.1 25.6 222.4 21.4 222.4 21.4Z" fill="#FFC7DB"/>
<path d="M220.2 24.9C220.2 24.9 220.3 21.4 221.9 20.2C223.5 19 225.3 24.1 225.3 24.1C225.3 24.1 222.2 25.4 220.2 24.9Z" fill="#057CE6"/>
<path d="M220.2 24.9C220.2 24.9 220.3 21.4 221.9 20.2C223.5 19 225.3 24.1 225.3 24.1C225.3 24.1 222.2 25.4 220.2 24.9Z" fill="#18437E"/>
<path d="M222.4 21.4C223.2 22.2 223.8 23.2 224 24.3C222.1 25.6 222.4 21.4 222.4 21.4Z" fill="#FFC7DB"/>
<path d="M196.6 28.4C199.1 29.7 202.4 32 201.6 34.6C200.3 38.8 192.3 39.4 188.9 38.2C188.9 38.2 191.1 44.3 189.2 45.3L185.9 37.3C185.9 37.3 192 35.2 191.9 32.8" fill="#FF7379"/>
<path d="M199.6 26.8C199.931 26.8 200.2 26.5313 200.2 26.2C200.2 25.8686 199.931 25.6 199.6 25.6C199.269 25.6 199 25.8686 199 26.2C199 26.5313 199.269 26.8 199.6 26.8Z" fill="#FFC7DB"/>
<path d="M201.2 28C201.531 28 201.8 27.7314 201.8 27.4C201.8 27.0686 201.531 26.8 201.2 26.8C200.869 26.8 200.6 27.0686 200.6 27.4C200.6 27.7314 200.869 28 201.2 28Z" fill="#FFC7DB"/>
<path d="M201.9 25.5C202.231 25.5 202.5 25.2314 202.5 24.9C202.5 24.5686 202.231 24.3 201.9 24.3C201.569 24.3 201.3 24.5686 201.3 24.9C201.3 25.2314 201.569 25.5 201.9 25.5Z" fill="#FFC7DB"/>
<path d="M203.8 26.6C204.076 26.6 204.3 26.3761 204.3 26.1C204.3 25.8238 204.076 25.6 203.8 25.6C203.524 25.6 203.3 25.8238 203.3 26.1C203.3 26.3761 203.524 26.6 203.8 26.6Z" fill="#FFC7DB"/>
<path d="M171.9 157.7L170.6 161.3" stroke="url(#paint11_linear_2_23264)" stroke-width="2.37" stroke-linecap="round" stroke-linejoin="round"/>
<path d="M178.4 160.3L176.9 158.7C176.9 158.7 175.1 149.7 170 150.9C164.9 152.1 168.9 158.2 171.3 160C173.4 161.4 175.6 162.6 177.9 163.6" fill="#FF727F"/>
<path d="M175.1 148L173.1 153.9" stroke="url(#paint12_linear_2_23264)" stroke-width="2.37" stroke-linecap="round" stroke-linejoin="round"/>
<path d="M212.8 172.5L210.7 172.9C210.7 172.9 202.5 169.8 200.9 174.5C199.3 179.2 206.2 179.1 208.9 178.1C211.1 177.1 213.2 176 215.1 174.6" fill="#FF727F"/>
<path d="M230.8 134.2L226.5 133.3C226.5 133.3 226.9 156.3 210.6 172.9L212.6 176.5C212.6 176.5 227.8 171.4 237.5 148.5C247.2 125.6 230.8 134.2 230.8 134.2Z" fill="#FFE01B"/>
<path d="M256.1 137.5L259.4 159.2H267L269.9 137.5H256.1Z" fill="url(#paint13_linear_2_23264)"/>
<path opacity="0.5" d="M178.1 148.5C183.071 148.5 187.1 144.471 187.1 139.5C187.1 134.529 183.071 130.5 178.1 130.5C173.129 130.5 169.1 134.529 169.1 139.5C169.1 144.471 173.129 148.5 178.1 148.5Z" fill="white" stroke="url(#paint14_linear_2_23264)" stroke-width="2.37" stroke-miterlimit="10"/>
<path d="M178.1 148.5C183.071 148.5 187.1 144.471 187.1 139.5C187.1 134.529 183.071 130.5 178.1 130.5C173.129 130.5 169.1 134.529 169.1 139.5C169.1 144.471 173.129 148.5 178.1 148.5Z" stroke="#D3D2D2" stroke-width="2.37" stroke-miterlimit="10"/>
<path d="M197.1 122.6C195.4 121.5 185.6 118.6 185.6 118.6L181 131C181 131 188.7 142.9 195.2 144.6C199.5 145.7 204.5 136.9 204.5 136.9L211 142.6C211 142.6 217.1 131.3 217.4 132.2L197.1 122.6Z" fill="#FF727F"/>
<path d="M196.4 136.9L186.7 130.1C183.3 132.2 175 139.5 172.1 134.6C169.2 129.7 181.9 113 189.4 111.3C196.9 109.6 207.6 121.8 208.1 128C208.4 128 202.8 136.7 196.4 136.9Z" fill="#ADADFF"/>
<path d="M196.4 136.9L186.7 130.1C183.3 132.2 175 139.5 172.1 134.6C169.2 129.7 181.9 113 189.4 111.3C196.9 109.6 207.6 121.8 208.1 128C208.4 128 202.8 136.7 196.4 136.9Z" fill="#18437E"/>
<path d="M192.8 134.8C192.6 134.7 191.7 127.4 193.9 128.3C196.1 129.2 197.1 138.4 197.1 138.4L192.8 134.8Z" fill="#FF727F"/>
<path d="M297.9 170.4L300.6 173.6C303.2 176.4 307.3 177.3 310.8 175.8L299.6 167.8L297.9 170.4Z" fill="#2CCAFA"/>
<path d="M301 174.1L297.9 170.5C297.9 170.5 272.8 167.5 262.8 164.1L267.9 142.6C267.7 142.6 267.5 142.6 267.4 142.5H266.7C266.4 142.5 266.1 142.4 265.9 142.4C265.7 142.4 265.3 142.3 265 142.3C264.7 142.3 264.2 142.2 263.9 142.1C263.6 142 263.1 142 262.8 141.9C262.5 141.8 262.4 141.8 262.2 141.8C260.9 141.6 259.6 141.5 258.4 141.4C257.6 144.8 256.3 148.1 254.6 151.2C249.7 159.1 247.6 166.3 248.5 170.9C248.7 173.5 250.8 175.6 253.4 175.8C254 175.9 254.6 176 255.2 176H266.4C268.1 176 269.9 176 271.5 175.9H277.7L277.5 175.7C291 175.1 301 174.1 301 174.1Z" fill="#18437E"/>
<path d="M211.1 141.5C211.1 141.5 213.7 134.7 212 129.4L213.9 129.1C229.6 126.4 245.6 126.1 261.4 128.5L257.8 155.6L225.4 146.7C225.4 146.7 208.3 173.2 196.4 174C185.9 174.7 175.2 162.5 175.2 162.5L177.2 158.1C177.2 158.1 191.2 167.9 196.3 162.8C201.4 157.7 211.1 141.5 211.1 141.5Z" fill="#FFE01B"/>
<path d="M266.2 179.3C260.9 179.3 257.5 176.2 257.9 155.7C258.1 145.7 261.5 128.6 261.5 128.6C267.8 129.3 273.1 131.7 276.4 136.6C283 146.4 274.2 158.2 270.2 164.4C267.3 168.9 309.2 173.9 309.2 173.9L312.3 177.5C312.3 177.5 296.7 179.2 277.3 179.4C273.1 179.3 270.6 179.3 266.2 179.3Z" fill="#18437E"/>
<path d="M309.2 173.9L311.9 177.1C314.5 179.9 318.6 180.8 322.1 179.3L310.9 171.3L309.2 173.9Z" fill="#FF727F"/>
<path d="M309.2 173.9L311.9 177.1C314.5 179.9 318.6 180.8 322.1 179.3L310.9 171.3L309.2 173.9Z" fill="#2CCAFA"/>
<path d="M187 33.8C184.7 40 178.8 52.7 184.9 60.7L186.6 59.1C185.1 56.3 184.5 53.1 184.9 50C185.7 45.8 186.8 41.7 188.1 37.7L187 33.8Z" fill="#FF727F"/>
<path d="M260.1 176C259.2 174.5 258.6 172.9 258.2 171.2C257.8 169.5 257.5 167.8 257.3 166.1C257.1 164.4 257.1 162.7 257.1 161C257.1 159.3 257.3 157.6 257.7 155.9C257.7 155.6 258.1 155.7 258.1 155.9C257.9 157.6 257.9 159.3 257.9 161C257.9 162.7 258.1 164.3 258.3 166C258.5 167.7 258.7 169.4 259.1 171C259.4 172.6 259.9 174.2 260.5 175.8C260.5 176 260.2 176.2 260.1 176Z" fill="#202020"/>
<path d="M236.9 150.2C235 149.9 233 149.5 231.1 149C229.2 148.5 227.3 147.9 225.4 147.2C225.3 147.2 225.3 146.8 225.5 146.8C227.5 147.1 229.4 147.5 231.4 148C233.4 148.5 235.2 149.1 237.1 149.8C237.1 149.9 237 150.2 236.9 150.2Z" fill="#202020"/>
<path d="M140.4 81.8C140 78.7 138.7 75.8 136.5 73.5C134.4 71.2 131.7 69.4 128.7 68.4C128.5 68.3 128.5 68 128.8 68C132 68.6 135 70.3 137.2 72.7C138.3 73.9 139.2 75.4 139.8 76.9C140.4 78.4 140.7 80.1 140.7 81.7C140.7 81.8 140.7 81.9 140.6 81.9C140.5 81.9 140.5 81.9 140.4 81.8C140.5 81.8 140.5 81.8 140.4 81.8Z" fill="#202020"/>
<path d="M223.9 37.1C222.8 37 221.6 36.8 220.6 36.3C219.6 35.8 218.7 35 218 34C218 33.9 218.2 33.7 218.3 33.8C219.9 35.3 222 35.8 224 36.8C224.1 36.8 224 37.1 223.9 37.1Z" fill="#202020"/>
<path d="M201.4 36.2C201.5 34.7 201.3 33.1 200.8 31.7C200.2 30.4 198.8 29.6 197.4 28.8C197.3 28.7 197.4 28.4 197.6 28.5C198.4 28.7 199.2 29 199.9 29.4C200.7 29.8 201.3 30.4 201.7 31.2C202.1 32 202.3 32.8 202.2 33.7C202.2 34.5 202 35.3 201.8 36.1C201.9 36.3 201.4 36.3 201.4 36.2Z" fill="#202020"/>
<path d="M188.6 36.3C189.8 35.1 190.9 34.1 192 32.8C192 32.8 192.4 32.9 192.3 33C191.9 34.8 190.5 36.2 188.8 36.7C188.6 36.7 188.4 36.4 188.6 36.3Z" fill="#202020"/>
<path d="M206.6 132.9C206.3 134.3 205.7 135.6 204.7 136.7C204.7 136.7 204.3 136.6 204.4 136.5C204.7 135.1 205.3 133.8 206.3 132.7L206.6 132.9Z" fill="#202020"/>
<path d="M226.8 138C226.6 139.7 226.6 141.4 226.3 143.2C226 145 225.3 146.7 224.2 148.1C224.1 148.2 223.8 148 223.9 147.9C225.5 144.9 225.3 141.3 226.4 137.9C226.4 137.8 226.8 137.8 226.8 138Z" fill="#202020"/>
<path d="M155.8 83.1C154.4 82.9 153.2 82 152.7 80.6C152.7 80.6 152.9 80.3 153 80.4C154.1 81.1 155.1 81.9 156 82.7C155.9 82.9 155.8 83 155.8 83.1Z" fill="#202020"/>
<path d="M158.8 78.6C157.9 80.1 157 81.3 156 82.7C156 82.7 155.6 82.6 155.7 82.6C156 80.8 157 79.3 158.6 78.4C158.6 78.3 158.8 78.5 158.8 78.6Z" fill="#202020"/>
<path d="M154.2 84.8C154.5 84 155 83.3 155.7 82.8L156 83C155.9 83.9 155.3 84.7 154.4 85.1C154.6 85.1 154.2 84.9 154.2 84.8Z" fill="#202020"/>
<path d="M158 83.4C157.2 83.5 156.5 83.3 155.8 82.9V82.5C156.6 82.1 157.6 82.3 158.1 83.1C158.1 83.1 158.1 83.4 158 83.4Z" fill="#202020"/>
<path d="M244.1 79.3H244.3C244.4 79.3 244.5 79.4 244.5 79.5C244.7 79.6 244.8 79.8 244.9 80C245.1 80.4 245.2 80.8 245.2 81.2L244.9 81.4C244.6 81.2 244.2 80.8 244 80.5C243.9 80.3 243.8 80.1 243.8 79.9C243.8 79.8 243.8 79.7 243.7 79.6V79.4C243.7 79.3 243.7 79.2 243.8 79.1L244.1 79.3Z" fill="#202020"/>
<path d="M247.4 80.1C247.1 80.3 246.7 80.5 246.4 80.7C246.3 80.7 246.3 80.7 246.2 80.8C246.1 80.8 246 80.8 246 80.9C246 81 245.9 80.9 245.8 81C245.7 81 245.7 81 245.6 81.1C245.6 81.1 245.3 81.2 245.2 81.1C245.1 80.9 245.1 80.8 245.2 80.6C245.2 80.4 245.3 80.3 245.4 80.2L245.7 79.9C245.8 79.8 245.9 79.8 246 79.7C246.4 79.5 246.9 79.5 247.4 79.6V80.1Z" fill="#202020"/>
<path d="M243.6 82.0999C243.6 81.6999 243.9 81.2999 244.2 81.0999C244.5 80.8999 244.9 80.7999 245.3 80.8999C245.3 80.9999 245.4 81.2 245.4 81.3C245.2 81.6 245 81.7999 244.7 81.9999C244.5 82.1999 244.2 82.2999 243.9 82.3999L243.6 82.0999Z" fill="#202020"/>
<path d="M245.9 82.7C245.6 82.5 245.4 82.3 245.3 82C245.3 81.9 245.2 81.7 245.1 81.6V81.4C245.3 81.4 245.3 81.3 245.1 81.3V81.4C245 81.3 245 81.2 245 81.1C245 81.1 245 81.1 245.1 81C245.1 80.9 245.3 80.9 245.3 80.9H245.4C245.5 81 245.5 81.1 245.6 81.1C245.7 81.1 245.7 81.2 245.8 81.3C245.9 81.4 246 81.5 246 81.7C246.1 82 246.2 82.3 246.1 82.6C246.2 82.6 246 82.7 245.9 82.7Z" fill="#202020"/>
<defs>
<linearGradient id="paint0_linear_2_23264" x1="200" y1="61.74" x2="200" y2="90.45" gradientUnits="userSpaceOnUse">
<stop stop-color="#06CBFF"/>
<stop offset="1" stop-color="#0595E8"/>
</linearGradient>
<linearGradient id="paint1_linear_2_23264" x1="200" y1="100.7" x2="200" y2="55.16" gradientUnits="userSpaceOnUse">
<stop stop-color="#095097"/>
<stop offset="1" stop-color="#1273DC"/>
</linearGradient>
<linearGradient id="paint2_linear_2_23264" x1="255.56" y1="104.04" x2="257.41" y2="66.6" gradientUnits="userSpaceOnUse">
<stop stop-color="#FF96BC"/>
<stop offset="1" stop-color="#FFC7DB"/>
</linearGradient>
<linearGradient id="paint3_linear_2_23264" x1="145.239" y1="104.04" x2="143.399" y2="66.6" gradientUnits="userSpaceOnUse">
<stop stop-color="#FF96BC"/>
<stop offset="1" stop-color="#FFC7DB"/>
</linearGradient>
<linearGradient id="paint4_linear_2_23264" x1="179.425" y1="118.38" x2="179.425" y2="93.74" gradientUnits="userSpaceOnUse">
<stop stop-color="#06CBFF"/>
<stop offset="1" stop-color="#0595E8"/>
</linearGradient>
<linearGradient id="paint5_linear_2_23264" x1="268.583" y1="137.269" x2="273.003" y2="150.929" gradientUnits="userSpaceOnUse">
<stop stop-color="#032A54"/>
<stop offset="1" stop-color="#08447F"/>
</linearGradient>
<linearGradient id="paint6_linear_2_23264" x1="125.25" y1="120.49" x2="125.25" y2="73.15" gradientUnits="userSpaceOnUse">
<stop stop-color="#095097"/>
<stop offset="1" stop-color="#1273DC"/>
</linearGradient>
<linearGradient id="paint7_linear_2_23264" x1="274.65" y1="120.49" x2="274.65" y2="73.15" gradientUnits="userSpaceOnUse">
<stop stop-color="#095097"/>
<stop offset="1" stop-color="#1273DC"/>
</linearGradient>
<linearGradient id="paint8_linear_2_23264" x1="200.35" y1="138.39" x2="200.35" y2="107.36" gradientUnits="userSpaceOnUse">
<stop stop-color="#005099"/>
<stop offset="1" stop-color="#0073DE"/>
</linearGradient>
<linearGradient id="paint9_linear_2_23264" x1="222.855" y1="32.8091" x2="231.055" y2="37.6591" gradientUnits="userSpaceOnUse">
<stop stop-color="#FF7381"/>
<stop offset="1" stop-color="#FF4D5E"/>
</linearGradient>
<linearGradient id="paint10_linear_2_23264" x1="229.403" y1="28.0344" x2="226.579" y2="29.819" gradientUnits="userSpaceOnUse">
<stop stop-color="#FF7381"/>
<stop offset="1" stop-color="#FF4D5E"/>
</linearGradient>
<linearGradient id="paint11_linear_2_23264" x1="173.309" y1="160.203" x2="175.572" y2="160.966" gradientUnits="userSpaceOnUse">
<stop stop-color="#002A54"/>
<stop offset="1" stop-color="#084480"/>
</linearGradient>
<linearGradient id="paint12_linear_2_23264" x1="176.191" y1="151.648" x2="178.454" y2="152.41" gradientUnits="userSpaceOnUse">
<stop stop-color="#002A54"/>
<stop offset="1" stop-color="#084480"/>
</linearGradient>
<linearGradient id="paint13_linear_2_23264" x1="265.373" y1="136.701" x2="260.953" y2="150.361" gradientUnits="userSpaceOnUse">
<stop stop-color="#005099"/>
<stop offset="1" stop-color="#0073DE"/>
</linearGradient>
<linearGradient id="paint14_linear_2_23264" x1="178.347" y1="134.556" x2="177.124" y2="154.936" gradientUnits="userSpaceOnUse">
<stop stop-color="#005099"/>
<stop offset="1" stop-color="#0073DE"/>
</linearGradient>
</defs>
</svg>
