<svg width="29" height="30" viewBox="0 0 29 30" fill="none" xmlns="http://www.w3.org/2000/svg">
<rect x="0.463867" y="0.731873" width="28.5363" height="28.5363" rx="7.36419" fill="white"/>
<path d="M10.144 24.205C12.694 24.205 14.7612 22.1377 14.7612 19.5877L14.7612 14.9704L10.144 14.9704C7.59392 14.9704 5.5267 17.0376 5.5267 19.5877C5.5267 22.1377 7.59392 24.205 10.144 24.205Z" fill="#010101"/>
<path d="M19.3197 5.79492C16.7697 5.79492 14.7025 7.86215 14.7025 10.4122V15.0295H19.3197C21.8698 15.0295 23.937 12.9623 23.937 10.4122C23.937 7.86215 21.8698 5.79492 19.3197 5.79492Z" fill="#010101"/>
<path d="M10.1445 5.79492C12.6945 5.79492 14.7617 7.86215 14.7617 10.4122L14.7617 15.0295H10.1445C7.59441 15.0295 5.52719 12.9623 5.52719 10.4122C5.52719 7.86215 7.59441 5.79492 10.1445 5.79492Z" fill="#010101"/>
<path d="M19.3197 24.205C16.7697 24.205 14.7025 22.1377 14.7025 19.5877L14.7025 14.9704H19.3197C21.8698 14.9704 23.937 17.0376 23.937 19.5877C23.937 22.1377 21.8698 24.205 19.3197 24.205Z" fill="#010101"/>
</svg>
